<svg width="184" height="177" viewBox="0 0 184 177" fill="none" xmlns="http://www.w3.org/2000/svg">
<g opacity="0.1">
<path d="M181.679 100.197C176.76 90.1681 172.405 79.9023 167.904 69.6579C160.694 53.267 152.693 37.2131 146.532 20.3628C144.784 15.5917 143.051 10.8061 141.731 5.88386C140.721 2.11354 140.06 1.39496 136.196 0.977199C135.318 0.895434 134.436 0.8797 133.556 0.930114C128.367 1.11179 123.242 2.11403 118.368 3.89976C98.5891 11.3808 83.391 24.088 74.0081 43.3296C72.9316 45.5313 72.9512 45.4911 70.5315 44.6935C62.9758 42.1549 55.0294 40.9977 47.0708 41.2769C32.8426 41.8196 20.5813 47.4272 10.044 56.8641C6.96665 59.5545 4.27853 62.6618 2.05694 66.0963C0.856837 68.0058 0.628345 69.8222 1.66078 72.0125C2.99039 74.8248 4.62818 77.4693 6.00844 80.2128C13.634 95.3162 20.751 110.673 28.5018 125.725C33.5661 135.557 37.9346 145.698 41.0879 156.358C41.9178 158.875 42.8861 161.345 43.9884 163.756C44.3289 164.555 44.7457 165.612 45.4198 165.923C47.4942 166.885 48.0491 168.77 48.7868 170.602C49.2637 171.792 50.0736 173.184 51.3355 172.75C53.7703 171.901 54.3782 173.657 55.444 174.968C57.3072 177.26 58.978 177.405 60.9375 175.347C69.735 166.103 80.7727 160.838 92.7948 157.33C100.221 155.244 107.847 153.946 115.547 153.458C120.853 153.06 125.583 151.073 129.042 146.695C130.609 144.703 132.437 142.923 134.033 140.952C137.163 136.963 140.676 133.292 144.522 129.99C150.301 125.145 156.435 120.889 163.629 118.366C168.432 116.687 173.22 115.174 178.392 115.004C181.957 114.883 182.9 112.706 180.986 109.587C180.374 108.728 179.706 107.911 178.986 107.14C182.706 103.923 183.075 103.044 181.679 100.197ZM179.297 102.126C179.318 102.461 179.209 102.792 178.994 103.049C178.779 103.307 178.473 103.472 178.14 103.51C177.723 103.608 177.301 103.685 176.874 103.764C175.722 104.887 175.072 105.583 174.845 106.266C175.266 106.143 175.689 106.025 176.104 105.893C176.982 105.615 177.954 105.404 178.298 106.566C178.642 107.729 177.72 108.16 176.862 108.421C176.415 108.559 175.962 108.688 175.511 108.821C175.793 109.34 176.195 109.917 176.665 110.639C175.531 111.558 174.122 111.128 172.874 111.372C164.179 113.004 155.926 116.45 148.652 121.486C143.31 125.181 138.426 129.5 134.104 134.352C133.516 135.161 132.938 135.978 132.359 136.794C129.758 140.481 127.583 144.477 124.347 147.708C123.608 148.511 122.71 149.149 121.709 149.581C120.709 150.013 119.629 150.231 118.538 150.219C115.622 150.257 112.696 150.107 109.776 150.03C96.6351 151.01 83.8696 154.839 72.3619 161.253C67.23 164.127 62.5136 167.688 58.3426 171.839C57.1368 171.069 56.8087 170.099 56.364 169.227C56.2947 169.099 56.2254 168.972 56.1561 168.845L56.1018 168.874C55.3436 169.641 54.4064 171.278 53.1583 170.095C51.91 168.912 53.094 167.978 53.9751 167.221C53.6444 167.227 53.3172 167.292 53.0092 167.412C51.9126 167.826 51.6844 166.996 51.3752 166.298C51.0287 165.346 50.5329 164.456 49.9063 163.661L49.8203 163.708C49.5569 163.905 49.3087 164.128 49.0307 164.309C48.5368 164.643 47.9291 164.768 47.5208 164.33C47.4051 164.211 47.3143 164.07 47.2531 163.915C47.1922 163.761 47.1626 163.596 47.1657 163.43C47.1685 163.263 47.2046 163.1 47.2713 162.948C47.3379 162.796 47.434 162.658 47.554 162.544L47.8438 162.256C47.3439 161.715 47.2137 160.784 46.9042 160.074C45.112 156.023 44.1096 151.694 42.6323 147.53C39.3366 138.502 35.4308 129.71 30.9419 121.213C23.5983 107.082 17.0335 92.5679 9.76742 78.4065C8.55778 76.0416 7.28717 73.7157 6.01655 71.3901C5.1523 69.8332 5.34664 68.5483 6.4137 67.1182C11.1025 60.799 17.1522 55.6213 24.1143 51.9686C34.8432 46.2116 46.2631 44.0807 58.3435 46.0815C63.0171 46.854 67.7949 47.1805 72.0503 49.5717C72.3956 49.7774 72.7883 49.8886 73.1892 49.8944C72.746 48.9924 72.3498 47.994 73.5376 47.4881C74.7255 46.9825 75.2452 47.6898 75.5972 48.553C76.1096 47.8756 76.5321 47.1344 76.8537 46.3477C85.7662 27.9696 100.065 15.5638 118.907 8.17469C124.059 6.1844 129.531 5.15062 135.055 5.12384C136.679 5.10582 137.657 5.58671 138.13 7.37453C142.395 22.6404 148.513 37.1973 155.12 51.5826C162.654 67.9556 169.909 84.4517 177.305 100.883L177.408 101.074C177.572 101.061 177.735 101.037 177.894 101.027C178.06 100.996 178.23 101 178.393 101.04C178.557 101.08 178.711 101.154 178.843 101.258C178.976 101.362 179.085 101.493 179.163 101.643C179.242 101.793 179.287 101.957 179.297 102.126Z" fill="#F563BB"/>
<path d="M177.417 101.069C176.484 101.131 175.557 101.269 174.646 101.482C165.651 103.7 156.991 107.101 148.89 111.595C137.087 118.143 128.552 127.621 123.907 140.438C123.316 142.075 122.736 143.687 121.479 144.974C120.518 144.383 120.323 143.475 119.956 142.691C118.502 139.587 117.145 136.442 115.646 133.362C110.241 122.342 104.407 111.527 99.1616 100.444C91.213 83.6657 83.1617 66.9258 76.072 49.7504C75.9228 49.3895 75.7893 48.9493 75.6198 48.5408C75.4583 48.7355 75.2774 48.913 75.0796 49.0709C74.5665 49.5447 73.9084 49.8305 73.2118 49.8822C73.3504 50.1367 73.4888 50.3914 73.5717 50.6409C81.797 69.9662 90.5628 89.0461 99.8687 107.881C104.53 117.296 109.348 126.631 114.034 136.026C115.545 139.052 116.845 142.158 118.377 145.514C116.281 145.766 114.812 144.857 113.257 144.525C103.717 142.496 94.2564 142.829 84.7054 144.637C71.3964 147.172 59.8539 153.367 49.0679 161.212C48.6414 161.527 48.2426 161.878 47.8765 162.262C48.0096 162.418 48.1799 162.538 48.3716 162.611C48.9735 162.83 49.5126 163.194 49.9413 163.672C61.7025 154.994 74.4779 148.712 89.125 146.573C96.0544 145.563 102.927 145.538 109.866 147.063C109.234 147.197 108.593 147.282 107.948 147.317C101.736 147.206 95.6496 148.2 89.5768 149.327C76.1439 151.819 64.1927 157.316 54.3232 166.943C54.2316 167.034 54.1241 167.128 54.0075 167.227C55.019 167.218 55.6561 167.915 56.1813 168.837C60.5089 164.522 65.5448 161.207 70.9004 158.371C80.4371 153.329 90.8369 151.547 101.384 150.286C104.178 149.993 106.988 149.901 109.796 150.013C110.551 149.955 111.31 149.901 112.064 149.862C117.72 149.545 122.851 147.886 126.569 143.173C128.344 140.927 130.342 138.854 132.155 136.634C132.795 135.855 133.453 135.09 134.12 134.338C137.462 129.681 140.977 125.178 145.467 121.518C152.994 115.372 161.735 111.935 171.147 109.967C172.623 109.658 174.078 109.243 175.527 108.807C174.851 107.672 174.606 106.951 174.86 106.252C169.363 107.844 163.629 108.611 158.33 110.914C157.885 111.109 157.258 111.793 156.634 110.883C157.341 110.498 157.974 110.106 158.695 109.79C164.339 107.287 170.203 105.31 176.21 103.884C176.432 103.827 176.665 103.79 176.89 103.75L177.189 103.457C178.102 102.565 177.806 101.912 177.417 101.069ZM127.802 138.31C132.38 127.811 139.789 119.937 149.886 114.595C140.36 120.457 134.079 129.379 127.802 138.31ZM151.709 114.003C151.35 113.072 152.037 112.987 152.401 112.812C152.764 112.638 153.138 112.245 153.557 112.724C153.188 113.515 152.359 113.513 151.709 114.003Z" fill="#F563BB"/>
<path d="M75.0571 49.0831C75.2548 48.9254 75.4356 48.7477 75.5972 48.553C75.2452 47.6898 74.7341 46.966 73.5376 47.4881C72.3411 48.0105 72.7459 48.9924 73.1892 49.8944C73.8857 49.843 74.5438 49.5571 75.0571 49.0831Z" fill="#F563BB"/>
<path d="M126.553 143.187C122.836 147.901 117.686 149.569 112.048 149.876C111.289 149.918 110.531 149.972 109.78 150.027C112.701 150.104 115.622 150.257 118.543 150.216C119.633 150.228 120.713 150.011 121.714 149.579C122.714 149.146 123.613 148.508 124.351 147.706C127.588 144.475 129.762 140.478 132.364 136.792C132.942 135.975 133.521 135.159 134.108 134.349C133.442 135.102 132.783 135.867 132.144 136.646C130.326 138.868 128.328 140.941 126.553 143.187Z" fill="#F563BB"/>
<path d="M47.8539 162.274L47.5638 162.562C47.4439 162.677 47.3478 162.814 47.2811 162.966C47.2145 163.118 47.1786 163.282 47.1755 163.448C47.1724 163.614 47.2023 163.779 47.2632 163.934C47.3241 164.088 47.415 164.229 47.5306 164.349C47.939 164.786 48.5467 164.661 49.0408 164.328C49.3185 164.147 49.567 163.923 49.8301 163.726L49.9164 163.68C49.4877 163.202 48.9486 162.838 48.3467 162.619C48.1564 162.547 47.987 162.429 47.8539 162.274Z" fill="#F563BB"/>
<path d="M54.0053 167.234C53.1245 167.991 51.8786 168.876 53.1886 170.108C54.4986 171.339 55.3559 169.664 56.1321 168.887L56.1866 168.858C55.636 167.932 54.9989 167.235 54.0053 167.234Z" fill="#F563BB"/>
<path d="M177.903 101.022C177.744 101.032 177.581 101.056 177.418 101.069C177.801 101.903 178.102 102.565 177.173 103.471L176.874 103.764C177.301 103.685 177.723 103.608 178.14 103.51C178.473 103.472 178.779 103.307 178.994 103.049C179.209 102.792 179.318 102.461 179.297 102.126C179.288 101.958 179.243 101.794 179.165 101.644C179.088 101.495 178.98 101.363 178.848 101.259C178.716 101.155 178.564 101.079 178.401 101.039C178.238 100.998 178.069 100.992 177.903 101.022Z" fill="#F563BB"/>
<path d="M175.511 108.821C175.962 108.688 176.415 108.559 176.862 108.421C177.72 108.16 178.634 107.692 178.298 106.566C177.962 105.441 176.982 105.615 176.104 105.893C175.689 106.025 175.265 106.143 174.845 106.266C174.587 106.991 174.836 107.686 175.511 108.821Z" fill="#F563BB"/>
<path d="M87.6687 51.7907C87.7445 51.5845 87.8107 51.3714 87.9118 51.1573C89.6779 46.983 92.1758 43.1607 95.2871 39.8709C100.03 34.7831 105.407 30.3282 111.286 26.6155C117.504 22.6973 124.138 19.8487 131.476 18.8102C131.911 18.7471 132.342 18.6598 132.767 18.5487C133.49 18.3551 133.946 17.9067 133.797 17.1151C133.774 16.9489 133.717 16.789 133.631 16.6448C133.545 16.5006 133.431 16.3751 133.296 16.2757C133.161 16.1763 133.008 16.1049 132.845 16.0658C132.682 16.0268 132.513 16.0207 132.348 16.0482C130.81 16.1624 129.283 16.3876 127.779 16.7218C111.514 20.9205 98.8672 30.3457 89.0394 43.7994C87.4948 45.9569 86.2947 48.3428 85.4825 50.8715C85.2125 51.6496 85.1016 52.4939 85.9838 52.8737C86.8661 53.2536 87.3951 52.6058 87.6687 51.7907Z" fill="#F563BB"/>
<path d="M92.584 65.0107C93.3888 63.1957 94.3451 61.452 95.4427 59.7985C101.19 50.92 109.539 45.0446 118.622 40.096C123 37.7366 127.783 36.2226 132.722 35.6327C134.035 35.4686 135.355 35.373 136.678 35.3457C137.659 35.3239 138.548 35.1642 138.56 34.0199C138.568 33.0724 137.745 32.8132 136.44 32.6814C136.151 32.6912 135.372 32.6737 134.615 32.7503C128.765 33.1373 123.062 34.7389 117.867 37.4542C107.307 43.078 97.9045 50.0102 91.9761 60.8031C91.3832 61.8534 90.858 62.941 90.4037 64.0589C90.1342 64.7952 89.9404 65.7024 90.853 66.0951C91.7658 66.4881 92.2767 65.7206 92.584 65.0107Z" fill="#F563BB"/>
<path d="M117.398 115.03C117.741 114.342 118.041 113.63 118.363 112.936C120.762 107.786 123.895 103.196 128.303 99.5271C136.735 92.5167 146.082 87.3947 156.928 85.2461C158.112 85.0143 159.276 84.6914 160.41 84.2805C160.67 84.1747 160.879 83.9724 160.993 83.7157C161.107 83.4591 161.118 83.1678 161.024 82.9027C160.971 82.6293 160.821 82.3844 160.6 82.2143C160.38 82.0445 160.106 81.961 159.829 81.9799C159.39 82.0003 158.954 82.0584 158.525 82.1538C145.533 84.4302 133.541 90.5941 124.124 99.8356C120.033 103.798 117.335 108.722 115.487 113.513C115.018 114.812 114.857 115.595 115.86 115.939C116.625 116.2 117.086 115.654 117.398 115.03Z" fill="#F563BB"/>
<path d="M145.368 51.5312C145.378 51.2518 145.285 50.9782 145.107 50.7622C144.929 50.5464 144.678 50.4031 144.402 50.3598C143.643 50.2673 142.878 50.2443 142.115 50.2917C135.279 50.4794 128.882 52.3729 122.838 55.4539C114.063 59.9219 106.669 66.0313 101.061 74.2034C100.017 75.6919 99.1856 77.3193 98.5909 79.0389C98.3842 79.9767 98.1815 80.8359 99.1589 81.1638C99.8915 81.4308 100.376 80.7775 100.698 80.2016C101.126 79.4323 101.44 78.6181 101.832 77.8152C104.974 71.7946 109.923 67.4121 115.183 63.3969C123.225 57.2471 132.181 53.3284 142.461 52.9381C143.121 52.9065 143.776 52.8216 144.421 52.6841C144.693 52.6434 144.941 52.5032 145.116 52.2903C145.291 52.0775 145.381 51.8072 145.368 51.5312Z" fill="#F563BB"/>
<path d="M48.5691 135.359C50.7439 130.985 54.7233 128.946 58.9434 127.178C70.0381 122.483 81.534 121.831 93.2943 123.729C94.2718 123.888 95.2573 123.99 96.2461 124.037C96.5238 124.064 96.8008 123.983 97.0187 123.809C97.2366 123.635 97.3786 123.383 97.4144 123.106C97.4844 122.827 97.4469 122.532 97.3095 122.279C97.1719 122.026 96.9444 121.834 96.6724 121.742C95.5295 121.368 94.3407 121.138 93.1822 120.855C91.1821 120.677 89.2104 120.52 87.2375 120.327C76.4394 119.17 65.5387 121.045 55.7547 125.744C52.8279 127.051 50.228 128.993 48.1421 131.43C47.4176 132.26 46.8452 133.212 46.4522 134.243C46.3064 134.547 46.2799 134.895 46.3774 135.218C46.4749 135.541 46.6894 135.816 46.9791 135.989C47.6974 136.435 48.2608 135.98 48.5691 135.359Z" fill="#F563BB"/>
<path d="M148.485 66.9866C138.944 68.8929 129.943 72.885 122.124 78.6784C117.01 82.3646 112.676 87.0314 109.375 92.4095C108.803 93.3457 108.302 94.3262 107.999 94.8806C107.597 96.3901 107.827 97.1905 108.478 97.3074C109.274 97.4634 109.677 96.9077 110.023 96.3241C110.193 96.0428 110.316 95.7283 110.477 95.4403C112.58 91.6867 115.253 88.284 118.399 85.3535C126.856 77.3208 136.968 72.4717 148.204 69.7748C149.166 69.5455 150.144 69.3663 151.077 69.0522C151.348 68.981 151.583 68.8121 151.738 68.5779C151.892 68.3438 151.955 68.0608 151.914 67.7826C151.885 67.5028 151.752 67.244 151.542 67.0572C151.332 66.8706 151.059 66.7697 150.779 66.7744C150.009 66.7682 149.241 66.8393 148.485 66.9866Z" fill="#F563BB"/>
<path d="M18.3565 72.4418C18.7732 72.0962 19.1526 71.7075 19.4887 71.2827C23.1889 66.8617 27.8596 63.869 33.2152 61.8766C41.3069 58.8652 49.671 58.116 58.2246 58.7846C60.8625 58.907 63.4901 59.2024 66.0905 59.6686C66.7563 59.8128 67.4794 59.6842 67.7011 58.9032C67.9573 57.9914 67.4669 57.392 66.6028 57.1966C65.5289 56.9507 64.4357 56.8093 63.6383 56.672C61.0881 56.0337 58.757 56.1659 56.4532 56.0241C47.6611 55.468 39.0903 56.5065 30.9264 59.958C26.0134 61.9624 21.6356 65.0862 18.1394 69.0824C17.5037 69.6933 17.0167 70.4426 16.716 71.2726C16.6589 71.485 16.6689 71.7101 16.7445 71.917C16.8202 72.1237 16.9578 72.3021 17.1385 72.4277C17.3075 72.5736 17.5225 72.6551 17.7454 72.6578C17.9683 72.6604 18.1847 72.5839 18.3565 72.4418Z" fill="#F563BB"/>
<path d="M34.0128 102.292C36.4146 97.8061 40.5486 95.5008 44.9949 93.7268C53.3385 90.4011 61.9932 89.1814 70.9423 90.5128C73.4564 90.9115 75.9628 91.1019 78.4954 91.3727C79.3953 91.4719 80.4295 91.5803 80.631 90.4271C80.885 89.0037 79.6856 88.9265 78.709 88.7511C77.8392 88.5883 76.9753 88.4694 76.1889 88.3086C73.1285 88.007 70.1678 87.6513 67.1961 87.4373C58.6829 86.8501 50.1632 88.4187 42.4218 91.9986C39.7053 93.2355 37.2005 94.8926 34.9987 96.9094C33.7047 98.1154 32.6502 99.5558 31.8905 101.155C31.5371 101.867 31.339 102.723 32.211 103.203C33.083 103.683 33.6491 102.974 34.0128 102.292Z" fill="#F563BB"/>
<path d="M26.1829 85.9916C27.6248 84.3233 29.2824 82.8554 31.1117 81.6262C40.6001 75.1009 51.209 72.9694 62.5164 73.6349C65.1486 73.7865 67.7755 74.1769 70.404 74.4187C71.2523 74.4988 71.9891 74.2331 72.0483 73.24C72.0944 72.4602 71.5298 72.0488 70.8363 71.9079C69.7564 71.6828 68.6649 71.5231 67.5812 71.3236C57.7843 69.8705 48.9752 71.0978 40.8209 73.7131C35.8163 75.314 31.4744 78.1335 27.3602 81.3181C26.2823 82.2593 25.2939 83.2991 24.4079 84.4237C23.8772 85.0253 23.4562 85.7852 24.2148 86.4566C24.9735 87.1278 25.6438 86.6212 26.1829 85.9916Z" fill="#F563BB"/>
<path d="M81.7501 103.505C75.8193 102.852 69.8708 102.414 63.9491 103.182C56.7665 104.148 49.9981 106.374 44.103 110.789C42.6878 111.848 41.2971 112.954 40.3558 114.475C39.9496 115.132 39.6905 115.963 40.5291 116.544C41.2349 117.031 41.7719 116.538 42.2111 116.028C46.4259 111.138 52.0257 108.741 58.0724 107.08C65.9978 104.908 73.9915 105.238 82.0132 106.344C83.1208 106.501 84.3794 107.065 84.6334 105.447C84.8874 103.829 83.4629 103.857 82.4096 103.605C82.1912 103.571 81.9709 103.544 81.7501 103.505Z" fill="#F563BB"/>
<path d="M105.783 132.381C104.661 132.208 103.742 132.668 103.562 133.774C103.449 134.319 103.546 134.887 103.832 135.365C104.119 135.842 104.576 136.194 105.11 136.35C105.368 136.436 105.64 136.469 105.911 136.447C106.182 136.425 106.446 136.349 106.686 136.223C106.927 136.097 107.14 135.923 107.312 135.713C107.484 135.502 107.612 135.259 107.688 134.998C107.78 134.398 107.631 133.787 107.274 133.296C106.917 132.805 106.381 132.476 105.783 132.381Z" fill="#F563BB"/>
<path d="M166.509 93.9198C166.327 94.5608 166.397 95.2478 166.704 95.84C167.01 96.4322 167.531 96.885 168.16 97.1056C168.526 97.2393 168.929 97.2297 169.287 97.0788C169.647 96.9281 169.935 96.647 170.097 96.2921C170.568 95.2688 169.674 92.8676 168.646 92.5435C167.613 92.3402 166.859 92.7801 166.509 93.9198Z" fill="#F563BB"/>
<path d="M118.299 127.543C119.679 127.716 120.118 126.481 120.449 125.458C120.78 124.435 120.157 123.754 119.229 123.452C118.301 123.15 117.141 124.042 116.897 125.571C116.901 126.324 117.099 127.389 118.299 127.543Z" fill="#F563BB"/>
<path d="M125.49 117.948C125.419 118.9 125.667 119.809 126.962 119.923C127.827 120 128.537 119.577 128.598 118.684C128.67 118.187 128.548 117.681 128.26 117.271C127.971 116.86 127.536 116.576 127.045 116.476C126.053 116.262 125.712 116.985 125.49 117.948Z" fill="#F563BB"/>
<path d="M49.8863 152.561C50.0741 152.608 50.2694 152.617 50.4603 152.586C50.6512 152.556 50.834 152.487 50.9975 152.383C51.1609 152.28 51.3017 152.144 51.4113 151.985C51.5208 151.825 51.597 151.645 51.635 151.455C51.8895 150.367 51.1762 149.866 50.2165 149.581C49.2542 149.486 48.4265 149.79 48.2931 150.841C48.1598 151.892 48.9295 152.422 49.8863 152.561Z" fill="#F563BB"/>
<path d="M133.126 9.97104C134.071 9.95752 134.945 9.66389 134.959 8.56582C134.973 7.72708 134.378 7.19613 133.488 7.11516C132.404 7.01071 131.91 7.62717 131.692 8.55389C131.668 8.74727 131.689 8.94353 131.754 9.12756C131.818 9.31159 131.923 9.4785 132.062 9.61541C132.2 9.75232 132.368 9.85558 132.553 9.91722C132.737 9.97888 132.934 9.9973 133.126 9.97104Z" fill="#F563BB"/>
<path d="M56.1166 138.78C55.0374 138.708 54.63 139.46 54.576 140.409C54.5222 141.358 54.987 141.889 55.8716 141.884C56.7563 141.88 57.1568 141.255 57.2841 140.16C57.2098 139.634 57.0753 138.847 56.1166 138.78Z" fill="#F563BB"/>
<path d="M92.171 131.474C92.0123 131.464 91.8534 131.485 91.7031 131.537C91.553 131.589 91.4147 131.671 91.2964 131.777C91.1778 131.883 91.082 132.012 91.0139 132.156C90.9458 132.3 90.9069 132.456 90.8997 132.615C90.8705 132.748 90.8689 132.885 90.8944 133.019C90.9202 133.153 90.9728 133.28 91.0488 133.393C91.125 133.506 91.2235 133.602 91.3377 133.676C91.4522 133.749 91.5803 133.799 91.7143 133.821C91.899 133.873 92.0935 133.879 92.2809 133.839C92.4682 133.799 92.6432 133.714 92.7901 133.59C92.9371 133.468 93.052 133.31 93.1249 133.133C93.1978 132.955 93.2265 132.763 93.2083 132.571C93.2167 132.43 93.1959 132.288 93.1474 132.155C93.0989 132.022 93.0236 131.901 92.9263 131.798C92.8291 131.695 92.712 131.613 92.582 131.558C92.4522 131.502 92.3122 131.473 92.171 131.474Z" fill="#F563BB"/>
<path d="M122.039 131.364C121.877 131.369 121.718 131.408 121.573 131.48C121.428 131.551 121.3 131.653 121.197 131.778C121.094 131.903 121.019 132.049 120.978 132.206C120.936 132.362 120.928 132.526 120.954 132.686C120.948 132.961 121.048 133.229 121.232 133.433C121.416 133.637 121.671 133.763 121.945 133.785C122.105 133.822 122.272 133.82 122.431 133.779C122.59 133.739 122.737 133.661 122.86 133.552C122.983 133.443 123.078 133.306 123.137 133.153C123.197 132.999 123.219 132.834 123.202 132.67C123.215 132.507 123.195 132.343 123.143 132.188C123.091 132.033 123.008 131.89 122.899 131.768C122.791 131.645 122.658 131.547 122.51 131.477C122.363 131.408 122.202 131.369 122.039 131.364Z" fill="#F563BB"/>
</g>
</svg>
