<svg width="61" height="60" viewBox="0 0 61 60" fill="none" xmlns="http://www.w3.org/2000/svg">
<g opacity="0.8" clip-path="url(#clip0_1_357)">
<path d="M36.6182 51.8189H38.8516C39.8592 51.8189 40.6761 52.6358 40.6761 53.6434C40.6761 54.651 39.8592 55.4679 38.8516 55.4679H28.7302" stroke="#FFC221" stroke-width="1.75771" stroke-miterlimit="10" stroke-linecap="round" stroke-linejoin="round"/>
<path d="M29.7024 51.8189H32.7881" stroke="#FFC221" stroke-width="1.75771" stroke-miterlimit="10" stroke-linecap="round" stroke-linejoin="round"/>
<path d="M36.8197 55.468V57.355C36.8197 58.3282 36.0307 59.1171 35.0576 59.1171H22.5852" stroke="#FFC221" stroke-width="1.75771" stroke-miterlimit="10" stroke-linecap="round" stroke-linejoin="round"/>
<path d="M2.58275 22.7476C3.22197 20.4118 4.99936 18.5464 7.28181 17.7846C7.24396 17.4249 7.2245 17.0597 7.2245 16.69C7.2245 10.9834 11.8506 6.35739 17.5571 6.35739C17.6187 6.35739 17.6801 6.35798 17.7412 6.35903C18.0365 5.07403 18.6923 3.93703 19.5505 2.99548C20.4999 1.95398 21.7085 1.38882 22.7905 1.08368C23.0451 1.01185 23.4088 0.954429 23.8368 0.908611C26.8758 0.583201 29.5223 2.97732 29.5223 6.03374V52.2813C29.5223 56.0567 26.4617 59.1173 22.6864 59.1173C19.5685 59.1173 16.9103 57.1504 15.8845 54.3897C15.2641 54.5225 14.6192 54.5885 13.9572 54.5797C9.35731 54.5187 5.5787 50.7868 5.46398 46.1878C5.41113 44.0671 6.12512 42.1145 7.34825 40.5875C4.62567 40.4633 2.45654 38.2168 2.45654 35.4636C2.45654 33.3347 3.7535 31.5088 5.60038 30.7328C4.14254 29.7744 3.05077 28.3045 2.58052 26.5784" stroke="#FFC221" stroke-width="1.75771" stroke-miterlimit="10" stroke-linecap="round" stroke-linejoin="round"/>
<path d="M19.0615 52.9899C17.6541 53.9913 15.9327 54.5802 14.0737 54.5802C9.31713 54.5802 5.46118 50.7243 5.46118 45.9677C5.46118 42.9948 6.96742 40.3737 9.25842 38.826" stroke="#FFC221" stroke-width="1.75771" stroke-miterlimit="10" stroke-linecap="round" stroke-linejoin="round"/>
<path d="M4.71801 39.7168C3.35356 38.7951 2.45654 37.234 2.45654 35.4635C2.45654 32.6307 4.75305 30.3342 7.58589 30.3342" stroke="#FFC221" stroke-width="1.75771" stroke-miterlimit="10" stroke-linecap="round" stroke-linejoin="round"/>
<path d="M17.5569 6.35727C18.9707 6.35727 20.3182 6.6412 21.5455 7.15527" stroke="#FFC221" stroke-width="1.75771" stroke-miterlimit="10" stroke-linecap="round" stroke-linejoin="round"/>
<path d="M8.02237 20.6786C7.50829 19.4514 7.22437 18.1038 7.22437 16.6899" stroke="#FFC221" stroke-width="1.75771" stroke-miterlimit="10" stroke-linecap="round" stroke-linejoin="round"/>
<path d="M18.3643 21.8709C18.8074 19.7132 20.916 18.3233 23.0736 18.7666" stroke="#FFC221" stroke-width="1.75771" stroke-miterlimit="10" stroke-linecap="round" stroke-linejoin="round"/>
<path d="M18.0581 44.8767C16.8908 42.2396 18.082 39.1556 20.7191 37.9881" stroke="#FFC221" stroke-width="1.75771" stroke-miterlimit="10" stroke-linecap="round" stroke-linejoin="round"/>
<path d="M18.9593 39.1656C17.7855 38.7925 17.1363 37.5384 17.5094 36.3646" stroke="#FFC221" stroke-width="1.75771" stroke-miterlimit="10" stroke-linecap="round" stroke-linejoin="round"/>
<path d="M40.2214 8.405C37.097 6.52132 33.4358 5.43764 29.5215 5.43764" stroke="#FFC221" stroke-width="1.75771" stroke-miterlimit="10" stroke-linecap="round" stroke-linejoin="round"/>
<path d="M38.2583 48.1698V45.5368C38.2583 45.2258 38.4331 44.9405 38.7119 44.8026C45.5631 41.413 50.2744 34.352 50.2744 26.1906C50.2744 20.0584 47.6147 14.5475 43.386 10.7483" stroke="#FFC221" stroke-width="1.75771" stroke-miterlimit="10" stroke-linecap="round" stroke-linejoin="round"/>
<path d="M29.5215 48.1698H38.8518C39.8594 48.1698 40.6763 48.9866 40.6763 49.9943C40.6763 51.0019 39.8594 51.8188 38.8518 51.8188" stroke="#FFC221" stroke-width="1.75771" stroke-miterlimit="10" stroke-linecap="round" stroke-linejoin="round"/>
<path d="M54.1155 26.5702H58.5431" stroke="#FFC221" stroke-width="1.75771" stroke-miterlimit="10" stroke-linecap="round" stroke-linejoin="round"/>
<path d="M52.291 15.6229L56.8573 11.0663" stroke="#FFC221" stroke-width="1.75771" stroke-miterlimit="10" stroke-linecap="round" stroke-linejoin="round"/>
<path d="M56.8573 40.2593L52.291 37.5176" stroke="#FFC221" stroke-width="1.75771" stroke-miterlimit="10" stroke-linecap="round" stroke-linejoin="round"/>
<path d="M29.5234 38.2897C30.0279 38.3505 30.5414 38.3818 31.0623 38.3818C31.5831 38.3818 32.0966 38.3505 32.6011 38.2897L33.7214 35.1392C34.4829 34.9259 35.207 34.6233 35.8819 34.2436L38.902 35.6791C39.7123 35.044 40.4435 34.3127 41.0786 33.5025L39.643 30.4825C40.0229 29.8077 40.3254 29.0835 40.5386 28.3221L43.6892 27.2017C43.75 26.6972 43.7813 26.1838 43.7813 25.6629C43.7813 25.142 43.75 24.6285 43.6892 24.1241L40.5386 23.0037C40.3254 22.2423 40.0228 21.5181 39.643 20.8432L41.0786 17.8233C40.4435 17.013 39.7123 16.2818 38.902 15.6466L35.8819 17.0822C35.207 16.7024 34.4829 16.3999 33.7214 16.1866L32.6011 13.0361C32.0966 12.9753 31.5831 12.944 31.0623 12.944C30.5414 12.944 30.0279 12.9753 29.5234 13.0361" stroke="#FFC221" stroke-width="1.75771" stroke-miterlimit="10" stroke-linecap="round" stroke-linejoin="round"/>
<path d="M29.5234 31.6422C30.0224 31.7722 30.5458 31.8414 31.0855 31.8414C34.4978 31.8414 37.264 29.0752 37.264 25.6629C37.264 22.2506 34.4978 19.4843 31.0855 19.4843C30.5458 19.4843 30.0224 19.5534 29.5234 19.6835" stroke="#FFC221" stroke-width="1.75771" stroke-miterlimit="10" stroke-linecap="round" stroke-linejoin="round"/>
</g>
<defs>
<clipPath id="clip0_1_357">
<rect width="59.996" height="59.996" fill="white" transform="translate(0.501953)"/>
</clipPath>
</defs>
</svg>
