<svg width="60" height="60" viewBox="0 0 60 60" fill="none" xmlns="http://www.w3.org/2000/svg">
<g opacity="0.8">
<path d="M55 1H13C10.2397 1.00342 8.00342 3.23975 8 6V45H1C0.447754 45 0 45.4478 0 46V48C0.00341798 50.7603 2.23975 52.9966 5 53H36.0239V58C36.0239 58.3789 36.2378 58.7251 36.5767 58.8945C36.9155 59.064 37.3208 59.0273 37.624 58.7998L41.0239 56.25L44.4238 58.7998C44.5967 58.9302 44.8076 59.0005 45.0239 59C45.1792 59.0015 45.3325 58.9673 45.4722 58.8999C45.8125 58.7295 46.0264 58.3804 46.0239 58V53H47C49.7603 52.9966 51.9966 50.7603 52 48V9H59C59.5522 9 60 8.55225 60 8V6C59.9966 3.23975 57.7603 1.00342 55 1ZM36.0239 51H5C3.34326 51 2 49.6567 2 48V47H36.0239V51ZM44.0239 56L41.624 54.2002C41.2686 53.9331 40.7798 53.9331 40.4238 54.2002L38.0239 56V44.8311C38.2173 44.8462 38.4116 44.8428 38.604 44.8198C39.1812 45.5645 40.0703 46 41.0122 46C41.9541 46 42.8428 45.5645 43.4199 44.8198C43.6191 44.8438 43.8203 44.8477 44.02 44.8311L44.0239 56ZM45.3101 39.98C45.0435 40.0747 44.8291 40.2783 44.7212 40.5396C44.6128 40.8013 44.6201 41.0962 44.7422 41.3521C44.9312 41.7485 44.8511 42.2212 44.5415 42.5327C44.2314 42.8442 43.7593 42.9272 43.3618 42.7402C43.1064 42.6182 42.811 42.6104 42.5493 42.7183C42.2871 42.8267 42.084 43.041 41.9888 43.3081C41.8428 43.7222 41.4512 43.9995 41.0122 43.9995C40.5728 43.9995 40.1812 43.7222 40.0352 43.3081C39.9404 43.041 39.7368 42.8267 39.4751 42.7183C39.2129 42.6104 38.9175 42.6182 38.6621 42.7402C38.2646 42.9272 37.7925 42.8442 37.4829 42.5327C37.1729 42.2212 37.0928 41.7485 37.2822 41.3521C37.4038 41.0967 37.4116 40.8013 37.3032 40.54C37.1953 40.2783 36.9814 40.0752 36.7148 39.98C36.3003 39.8325 36.0229 39.4399 36.0229 39C36.0229 38.5601 36.3003 38.1675 36.7148 38.02C36.9814 37.9248 37.1948 37.7217 37.3027 37.4604C37.4111 37.1992 37.4033 36.9043 37.2822 36.6489C37.0918 36.2524 37.1719 35.7793 37.4819 35.4673C37.7915 35.1558 38.2642 35.0723 38.6621 35.2598C38.9175 35.3818 39.2129 35.3896 39.4751 35.2817C39.7368 35.1733 39.9404 34.959 40.0352 34.6919C40.1812 34.2778 40.5728 34.0005 41.0122 34.0005C41.4512 34.0005 41.8428 34.2778 41.9888 34.6919C42.084 34.959 42.2871 35.1733 42.5493 35.2817C42.811 35.3896 43.1064 35.3818 43.3618 35.2598C43.7593 35.0728 44.2314 35.1558 44.5415 35.4673C44.8511 35.7788 44.9312 36.2515 44.7422 36.6479C44.6201 36.9038 44.6128 37.1987 44.7212 37.4604C44.8291 37.7217 45.0435 37.9253 45.3101 38.02C45.7236 38.1685 46 38.5605 46 39C46 39.4395 45.7236 39.8315 45.3101 39.98ZM50.9229 3.125C50.8662 3.20508 50.8159 3.29004 50.7642 3.37402C50.6572 3.54492 50.5615 3.72168 50.4761 3.90381C50.4312 4.00391 50.3892 4.09619 50.3501 4.19385C50.2759 4.39014 50.2134 4.59033 50.1641 4.79395C50.1411 4.88721 50.1118 4.97705 50.0942 5.07178C50.0337 5.37793 50.0024 5.68848 50 6V48C50 49.6567 48.6567 51 47 51C46.6665 50.9937 46.3369 50.9316 46.0239 50.8159V43.8599C46.646 43.2056 46.9395 42.3057 46.8242 41.4102C47.5674 40.8315 48.002 39.9419 48.002 39C48.002 38.0581 47.5674 37.1685 46.8242 36.5898C46.9424 35.6562 46.6226 34.7202 45.958 34.0532C45.2935 33.3867 44.3584 33.0645 43.4238 33.1802C42.8467 32.4355 41.958 32 41.0161 32C40.0742 32 39.1851 32.4355 38.6079 33.1802C37.6738 33.0649 36.7388 33.3872 36.0742 34.0537C35.4102 34.7202 35.0903 35.6562 35.208 36.5898C34.4648 37.1685 34.0298 38.0581 34.0298 39C34.0298 39.9419 34.4648 40.8315 35.208 41.4102C35.0898 42.3184 35.3926 43.231 36.0298 43.8892V45H10V6C10 4.34326 11.3433 3 13 3H51C50.9722 3.03906 50.9512 3.08398 50.9229 3.125ZM58 7H52V6C52 4.34326 53.3433 3 55 3C56.6567 3 58 4.34326 58 6V7Z" fill="#FFC221"/>
<path d="M33 9H37V11H33V9Z" fill="#FFC221"/>
<path d="M23 9H31V11H23V9Z" fill="#FFC221"/>
<path d="M20 14H40V16H20V14Z" fill="#FFC221"/>
<path d="M15 20H20V22H15V20Z" fill="#FFC221"/>
<path d="M15 25H26V27H15V25Z" fill="#FFC221"/>
<path d="M22 20H45V22H22V20Z" fill="#FFC221"/>
<path d="M28 25H45V27H28V25Z" fill="#FFC221"/>
<path d="M15 30H35V32H15V30Z" fill="#FFC221"/>
<path d="M15 35H32V37H15V35Z" fill="#FFC221"/>
</g>
</svg>
