<svg width="61" height="60" viewBox="0 0 61 60" fill="none" xmlns="http://www.w3.org/2000/svg">
<g opacity="0.8" clip-path="url(#clip0_1_397)">
<path d="M38.4705 23.6987H53.6254" stroke="#FFC221" stroke-width="1.75781" stroke-miterlimit="10" stroke-linecap="round" stroke-linejoin="round"/>
<path d="M38.4705 28.9971H53.6254" stroke="#FFC221" stroke-width="1.75781" stroke-miterlimit="10" stroke-linecap="round" stroke-linejoin="round"/>
<path d="M38.4705 34.2955H53.6254" stroke="#FFC221" stroke-width="1.75781" stroke-miterlimit="10" stroke-linecap="round" stroke-linejoin="round"/>
<path d="M38.4705 39.5939H46.0479" stroke="#FFC221" stroke-width="1.75781" stroke-miterlimit="10" stroke-linecap="round" stroke-linejoin="round"/>
<mask id="mask0_1_397" style="mask-type:luminance" maskUnits="userSpaceOnUse" x="0" y="0" width="61" height="60">
<path d="M0.5 3.8147e-06H60.5V60H0.5V3.8147e-06Z" fill="white"/>
</mask>
<g mask="url(#mask0_1_397)">
<path d="M48.2351 1.19285C48.2446 1.19709 48.2539 1.20145 48.2632 1.20581" stroke="#FFC221" stroke-width="1.75781" stroke-miterlimit="10" stroke-linecap="round" stroke-linejoin="round"/>
<path d="M48.6785 1.4352C48.6859 1.43993 48.6932 1.44477 48.7005 1.44949" stroke="#FFC221" stroke-width="1.75781" stroke-miterlimit="10" stroke-linecap="round" stroke-linejoin="round"/>
<path d="M58.4534 11.1083C58.4576 11.1131 58.4617 11.1177 58.4659 11.1224" stroke="#FFC221" stroke-width="1.75781" stroke-miterlimit="10" stroke-linecap="round" stroke-linejoin="round"/>
<path d="M58.4258 11.0777C58.43 11.0822 58.434 11.0868 58.4382 11.0915" stroke="#FFC221" stroke-width="1.75781" stroke-miterlimit="10" stroke-linecap="round" stroke-linejoin="round"/>
<path d="M49.0864 1.7429C49.0916 1.74745 49.0968 1.75201 49.1019 1.75668" stroke="#FFC221" stroke-width="1.75781" stroke-miterlimit="10" stroke-linecap="round" stroke-linejoin="round"/>
<path d="M58.5076 11.1708C58.5116 11.1755 58.5156 11.1803 58.5196 11.185" stroke="#FFC221" stroke-width="1.75781" stroke-miterlimit="10" stroke-linecap="round" stroke-linejoin="round"/>
<path d="M58.5339 11.2024C58.5379 11.2072 58.5418 11.212 58.5457 11.2168" stroke="#FFC221" stroke-width="1.75781" stroke-miterlimit="10" stroke-linecap="round" stroke-linejoin="round"/>
<path d="M58.3699 11.0181C58.3733 11.0217 58.3768 11.0253 58.3802 11.0291" stroke="#FFC221" stroke-width="1.75781" stroke-miterlimit="10" stroke-linecap="round" stroke-linejoin="round"/>
<path d="M58.4805 11.139C58.4847 11.144 58.489 11.1489 58.4931 11.1537" stroke="#FFC221" stroke-width="1.75781" stroke-miterlimit="10" stroke-linecap="round" stroke-linejoin="round"/>
<path d="M49.1479 1.79831C49.1529 1.80286 49.1578 1.80729 49.1627 1.81184" stroke="#FFC221" stroke-width="1.75781" stroke-miterlimit="10" stroke-linecap="round" stroke-linejoin="round"/>
<path d="M49.1172 1.77038C49.1222 1.77494 49.1273 1.77949 49.1324 1.78404" stroke="#FFC221" stroke-width="1.75781" stroke-miterlimit="10" stroke-linecap="round" stroke-linejoin="round"/>
<path d="M58.8958 11.7337C58.901 11.7432 58.906 11.7526 58.9113 11.7621" stroke="#FFC221" stroke-width="1.75781" stroke-miterlimit="10" stroke-linecap="round" stroke-linejoin="round"/>
<path d="M49.2112 1.85777C49.2148 1.86138 49.2185 1.86486 49.2221 1.86847" stroke="#FFC221" stroke-width="1.75781" stroke-miterlimit="10" stroke-linecap="round" stroke-linejoin="round"/>
<path d="M58.9331 11.8035C58.9379 11.8127 58.9427 11.8219 58.9474 11.8312" stroke="#FFC221" stroke-width="1.75781" stroke-miterlimit="10" stroke-linecap="round" stroke-linejoin="round"/>
<path d="M58.3413 10.9882C58.3438 10.9908 58.3462 10.9934 58.3488 10.9958" stroke="#FFC221" stroke-width="1.75781" stroke-miterlimit="10" stroke-linecap="round" stroke-linejoin="round"/>
<path d="M58.3979 11.0474C58.402 11.0518 58.4061 11.0561 58.4101 11.0605" stroke="#FFC221" stroke-width="1.75781" stroke-miterlimit="10" stroke-linecap="round" stroke-linejoin="round"/>
<path d="M58.7603 11.5092C58.7649 11.5162 58.7695 11.5233 58.7741 11.5303" stroke="#FFC221" stroke-width="1.75781" stroke-miterlimit="10" stroke-linecap="round" stroke-linejoin="round"/>
<path d="M58.738 11.4755C58.7427 11.4826 58.7474 11.4894 58.7519 11.4965" stroke="#FFC221" stroke-width="1.75781" stroke-miterlimit="10" stroke-linecap="round" stroke-linejoin="round"/>
<path d="M58.782 11.5428C58.7866 11.55 58.7912 11.5572 58.7958 11.5645" stroke="#FFC221" stroke-width="1.75781" stroke-miterlimit="10" stroke-linecap="round" stroke-linejoin="round"/>
<path d="M58.8022 11.5751C58.8073 11.5832 58.8123 11.5912 58.8173 11.5993" stroke="#FFC221" stroke-width="1.75781" stroke-miterlimit="10" stroke-linecap="round" stroke-linejoin="round"/>
<path d="M58.8203 11.6049C58.8452 11.6457 58.8692 11.6869 58.8923 11.7286" stroke="#FFC221" stroke-width="1.75781" stroke-miterlimit="10" stroke-linecap="round" stroke-linejoin="round"/>
<path d="M58.7156 11.4428C58.7201 11.4493 58.7246 11.4558 58.729 11.4625" stroke="#FFC221" stroke-width="1.75781" stroke-miterlimit="10" stroke-linecap="round" stroke-linejoin="round"/>
<path d="M58.5884 11.2698C58.5912 11.2735 58.5942 11.2771 58.597 11.2807" stroke="#FFC221" stroke-width="1.75781" stroke-miterlimit="10" stroke-linecap="round" stroke-linejoin="round"/>
<path d="M58.6206 11.3118C58.6245 11.3169 58.6282 11.322 58.6322 11.3271" stroke="#FFC221" stroke-width="1.75781" stroke-miterlimit="10" stroke-linecap="round" stroke-linejoin="round"/>
<path d="M58.645 11.344C58.6497 11.3503 58.6542 11.3565 58.6588 11.3627" stroke="#FFC221" stroke-width="1.75781" stroke-miterlimit="10" stroke-linecap="round" stroke-linejoin="round"/>
<path d="M58.5605 11.2349C58.5642 11.2395 58.5679 11.244 58.5716 11.2486" stroke="#FFC221" stroke-width="1.75781" stroke-miterlimit="10" stroke-linecap="round" stroke-linejoin="round"/>
<path d="M58.6687 11.3761C58.6736 11.3828 58.6784 11.3896 58.6832 11.3964" stroke="#FFC221" stroke-width="1.75781" stroke-miterlimit="10" stroke-linecap="round" stroke-linejoin="round"/>
<path d="M58.9146 11.7684C58.9196 11.778 58.9247 11.7874 58.9297 11.797" stroke="#FFC221" stroke-width="1.75781" stroke-miterlimit="10" stroke-linecap="round" stroke-linejoin="round"/>
<path d="M58.6924 11.4093C58.6969 11.4157 58.7014 11.4221 58.7058 11.4285" stroke="#FFC221" stroke-width="1.75781" stroke-miterlimit="10" stroke-linecap="round" stroke-linejoin="round"/>
<path d="M49.179 1.82729C49.1835 1.8316 49.1879 1.83578 49.1924 1.84009" stroke="#FFC221" stroke-width="1.75781" stroke-miterlimit="10" stroke-linecap="round" stroke-linejoin="round"/>
<path d="M48.7468 1.48014C48.7537 1.48482 48.7605 1.4895 48.7674 1.49417" stroke="#FFC221" stroke-width="1.75781" stroke-miterlimit="10" stroke-linecap="round" stroke-linejoin="round"/>
<path d="M48.6448 1.41354C48.6526 1.41851 48.6605 1.42359 48.6684 1.42856" stroke="#FFC221" stroke-width="1.75781" stroke-miterlimit="10" stroke-linecap="round" stroke-linejoin="round"/>
<path d="M48.4485 1.29895C48.4576 1.30391 48.4667 1.30888 48.4759 1.31384" stroke="#FFC221" stroke-width="1.75781" stroke-miterlimit="10" stroke-linecap="round" stroke-linejoin="round"/>
<path d="M48.481 1.31727C48.5222 1.34012 48.5631 1.36391 48.6033 1.38852" stroke="#FFC221" stroke-width="1.75781" stroke-miterlimit="10" stroke-linecap="round" stroke-linejoin="round"/>
<path d="M48.7131 1.45748C48.7201 1.46216 48.727 1.46684 48.7341 1.47151" stroke="#FFC221" stroke-width="1.75781" stroke-miterlimit="10" stroke-linecap="round" stroke-linejoin="round"/>
<path d="M13.511 52.8374V55.654C13.511 57.5702 15.0643 59.1235 16.9804 59.1235H40.7636" stroke="#FFC221" stroke-width="1.75781" stroke-miterlimit="10" stroke-linecap="round" stroke-linejoin="round"/>
<path d="M48.6104 1.39226C48.6185 1.39734 48.6267 1.40231 48.6348 1.40739" stroke="#FFC221" stroke-width="1.75781" stroke-miterlimit="10" stroke-linecap="round" stroke-linejoin="round"/>
<path d="M48.3435 1.24452C48.3522 1.24888 48.3608 1.25312 48.3694 1.25748" stroke="#FFC221" stroke-width="1.75781" stroke-miterlimit="10" stroke-linecap="round" stroke-linejoin="round"/>
<path d="M48.3079 1.22708C48.3167 1.23144 48.3255 1.23568 48.3343 1.24004" stroke="#FFC221" stroke-width="1.75781" stroke-miterlimit="10" stroke-linecap="round" stroke-linejoin="round"/>
<path d="M48.3792 1.26247C48.3881 1.26707 48.397 1.27167 48.4059 1.27628" stroke="#FFC221" stroke-width="1.75781" stroke-miterlimit="10" stroke-linecap="round" stroke-linejoin="round"/>
<path d="M40.7636 59.1235H55.8587C57.7748 59.1235 59.3281 57.5702 59.3281 55.6541V13.4121C59.3281 12.8996 59.2147 12.3989 59.0019 11.9434C59.0068 11.9539 59.0116 11.9644 59.0164 11.975H50.3854C49.1975 11.975 48.2345 11.0119 48.2345 9.82402V1.19304C47.7874 0.989603 47.298 0.881321 46.7974 0.881321H16.9804C15.0643 0.881321 13.511 2.43464 13.511 4.35078V13.3485M38.4705 10.9637C38.4705 11.5222 38.0177 11.975 37.4592 11.975H20.0232C19.4647 11.975 19.012 11.5222 19.012 10.9637V7.59534C19.012 7.03683 19.4647 6.58402 20.0232 6.58402H37.4592C38.0177 6.58402 38.4705 7.03683 38.4705 7.59534V10.9637Z" stroke="#FFC221" stroke-width="1.75781" stroke-miterlimit="10" stroke-linecap="round" stroke-linejoin="round"/>
<path d="M48.4133 1.28018C48.4224 1.28502 48.4315 1.28974 48.4407 1.29471C48.4315 1.28986 48.4224 1.28502 48.4133 1.28018Z" stroke="#FFC221" stroke-width="1.75781" stroke-miterlimit="10" stroke-linecap="round" stroke-linejoin="round"/>
<path d="M48.7803 1.50314C48.787 1.50781 48.7937 1.51249 48.8003 1.51717" stroke="#FFC221" stroke-width="1.75781" stroke-miterlimit="10" stroke-linecap="round" stroke-linejoin="round"/>
<path d="M48.9285 1.61262C48.9329 1.61594 48.9371 1.61939 48.9415 1.62283" stroke="#FFC221" stroke-width="1.75781" stroke-miterlimit="10" stroke-linecap="round" stroke-linejoin="round"/>
<path d="M48.2722 1.20998C48.2808 1.2141 48.2894 1.2181 48.298 1.22234" stroke="#FFC221" stroke-width="1.75781" stroke-miterlimit="10" stroke-linecap="round" stroke-linejoin="round"/>
<path d="M58.9858 11.9087C58.9907 11.9188 58.9954 11.9288 59.0001 11.939" stroke="#FFC221" stroke-width="1.75781" stroke-miterlimit="10" stroke-linecap="round" stroke-linejoin="round"/>
<path d="M48.9927 1.66355C48.9978 1.66773 49.0029 1.67192 49.0079 1.6761" stroke="#FFC221" stroke-width="1.75781" stroke-miterlimit="10" stroke-linecap="round" stroke-linejoin="round"/>
<path d="M49.0239 1.6895C49.0292 1.69393 49.0345 1.69836 49.0397 1.70279" stroke="#FFC221" stroke-width="1.75781" stroke-miterlimit="10" stroke-linecap="round" stroke-linejoin="round"/>
<path d="M49.0552 1.71589L49.0712 1.7298" stroke="#FFC221" stroke-width="1.75781" stroke-miterlimit="10" stroke-linecap="round" stroke-linejoin="round"/>
<path d="M48.9604 1.63758C48.9656 1.64164 48.9707 1.6457 48.9757 1.64989" stroke="#FFC221" stroke-width="1.75781" stroke-miterlimit="10" stroke-linecap="round" stroke-linejoin="round"/>
<path d="M48.8132 1.52636C48.82 1.53128 48.8268 1.53608 48.8335 1.54088" stroke="#FFC221" stroke-width="1.75781" stroke-miterlimit="10" stroke-linecap="round" stroke-linejoin="round"/>
<path d="M48.8784 1.57418C48.8851 1.5791 48.8917 1.58414 48.8984 1.58907C48.8917 1.58402 48.8851 1.5791 48.8784 1.57418Z" stroke="#FFC221" stroke-width="1.75781" stroke-miterlimit="10" stroke-linecap="round" stroke-linejoin="round"/>
<path d="M58.9514 11.8391C58.9561 11.8484 58.9607 11.8576 58.9653 11.867" stroke="#FFC221" stroke-width="1.75781" stroke-miterlimit="10" stroke-linecap="round" stroke-linejoin="round"/>
<path d="M58.969 11.874C58.9737 11.8836 58.9783 11.8931 58.9829 11.9025" stroke="#FFC221" stroke-width="1.75781" stroke-miterlimit="10" stroke-linecap="round" stroke-linejoin="round"/>
<path d="M48.8459 1.55008C48.8526 1.55501 48.8592 1.55993 48.866 1.56485" stroke="#FFC221" stroke-width="1.75781" stroke-miterlimit="10" stroke-linecap="round" stroke-linejoin="round"/>
<path d="M50.3856 11.975H59.0166C59.0118 11.9644 59.0068 11.9539 59.0019 11.9433C59.0013 11.9418 59.0006 11.9404 58.9999 11.9389C58.9954 11.9292 58.9907 11.9194 58.9861 11.9097C58.9849 11.9074 58.9838 11.9049 58.9826 11.9026C58.9781 11.8933 58.9737 11.8842 58.9691 11.8749C58.9678 11.8723 58.9665 11.8696 58.9651 11.8669C58.9607 11.8579 58.9561 11.849 58.9516 11.84C58.95 11.837 58.9486 11.8341 58.9471 11.8311C58.9425 11.8222 58.9378 11.8133 58.9331 11.8044C58.932 11.8019 58.9306 11.7994 58.9294 11.797C58.9245 11.7877 58.9195 11.7786 58.9146 11.7693C58.9134 11.767 58.912 11.7645 58.9108 11.7622C58.9058 11.7529 58.9008 11.7438 58.8958 11.7346C58.8946 11.7326 58.8935 11.7305 58.8924 11.7285C58.8693 11.6869 58.8452 11.6457 58.8204 11.6049C58.8192 11.603 58.8182 11.6013 58.817 11.5993C58.8122 11.5915 58.8073 11.5837 58.8025 11.5758C58.8001 11.5721 58.7978 11.5682 58.7953 11.5645C58.791 11.5574 58.7865 11.5504 58.782 11.5435C58.7791 11.539 58.7765 11.5347 58.7736 11.5304C58.7692 11.5235 58.7647 11.5167 58.7603 11.5099C58.7574 11.5054 58.7544 11.501 58.7514 11.4965C58.747 11.4898 58.7426 11.4831 58.7381 11.4766C58.735 11.4719 58.7318 11.4672 58.7286 11.4624C58.7244 11.4562 58.7201 11.45 58.7158 11.4438C58.7124 11.4386 58.7087 11.4336 58.7052 11.4284C58.701 11.4224 58.6968 11.4162 58.6924 11.4102C58.6892 11.4056 58.6859 11.401 58.6826 11.3963C58.6779 11.3899 58.6733 11.3834 58.6688 11.377C58.6652 11.3723 58.6617 11.3675 58.6582 11.3627C58.6539 11.3568 58.6495 11.3508 58.6451 11.3449C58.6408 11.3389 58.6362 11.3329 58.6318 11.327C58.6281 11.3222 58.6246 11.3173 58.6208 11.3125C58.6127 11.3019 58.6047 11.2913 58.5965 11.2808C58.5939 11.2775 58.5912 11.2742 58.5886 11.2708C58.5827 11.2634 58.577 11.256 58.5711 11.2486C58.5676 11.2443 58.5641 11.24 58.5606 11.2355C58.5556 11.2293 58.5505 11.223 58.5454 11.2168C58.5417 11.2122 58.5379 11.2077 58.5341 11.2032C58.5292 11.1971 58.5241 11.191 58.5191 11.185C58.5154 11.1804 58.5115 11.176 58.5076 11.1715C58.5027 11.1656 58.4977 11.1596 58.4926 11.1537C58.4886 11.149 58.4845 11.1445 58.4806 11.1398C58.4755 11.1339 58.4705 11.1282 58.4654 11.1224C58.4615 11.118 58.4575 11.1134 58.4535 11.109C58.4483 11.1031 58.4431 11.0972 58.4378 11.0914C58.4339 11.087 58.43 11.0827 58.4259 11.0784C58.4206 11.0724 58.4152 11.0664 58.4098 11.0606C58.4058 11.0563 58.402 11.0521 58.3982 11.048C58.3922 11.0417 58.3862 11.0354 58.3804 11.029C58.3768 11.0254 58.3734 11.0218 58.3699 11.018C58.3629 11.0106 58.3558 11.0033 58.3486 10.9959C58.3461 10.9934 58.3438 10.991 58.3415 10.9886C58.3317 10.9786 58.322 10.9687 58.312 10.9588L49.2508 1.89755C49.241 1.88771 49.2313 1.8781 49.2213 1.86849C49.2181 1.86521 49.2147 1.86205 49.2114 1.85877C49.2049 1.85255 49.1985 1.84623 49.1919 1.84002C49.1876 1.83591 49.1834 1.83193 49.1792 1.82795C49.1734 1.82255 49.1678 1.81716 49.162 1.81189C49.1575 1.80755 49.1527 1.80322 49.148 1.799C49.1427 1.79396 49.1372 1.78904 49.1318 1.78412C49.127 1.77966 49.1222 1.77533 49.1174 1.77099C49.112 1.76619 49.1066 1.76138 49.1013 1.7567C49.0964 1.75224 49.0914 1.74791 49.0865 1.74357C49.0812 1.73888 49.0759 1.73431 49.0706 1.72974L49.0553 1.7165C49.05 1.71193 49.0445 1.70736 49.0391 1.70279C49.0342 1.69857 49.0292 1.69423 49.0241 1.69013C49.0185 1.68544 49.0129 1.68076 49.0072 1.67607C49.0024 1.6722 48.9976 1.6681 48.9927 1.66412C48.9868 1.65931 48.981 1.65462 48.975 1.64982C48.9702 1.64595 48.9654 1.64209 48.9606 1.6381C48.9542 1.63306 48.9476 1.62791 48.9411 1.62287C48.9369 1.61959 48.9329 1.6163 48.9287 1.61314C48.9183 1.60505 48.908 1.59697 48.8975 1.58912C48.8912 1.58431 48.8849 1.57951 48.8786 1.57482C48.8741 1.57154 48.8697 1.56814 48.8652 1.56486C48.8589 1.56005 48.8524 1.55537 48.8461 1.5508C48.8417 1.54751 48.8371 1.54412 48.8326 1.54084C48.8262 1.53627 48.8197 1.5317 48.8133 1.52701C48.8086 1.52373 48.804 1.52045 48.7995 1.51716C48.7931 1.51271 48.7867 1.50826 48.7804 1.5038L48.7664 1.4942C48.76 1.48963 48.7534 1.48529 48.747 1.48084C48.7424 1.47767 48.7377 1.47451 48.733 1.47146C48.7265 1.46701 48.7198 1.46255 48.7132 1.4581C48.7088 1.45529 48.7043 1.45236 48.7 1.44955C48.6929 1.44486 48.6858 1.44029 48.6786 1.4356C48.675 1.43326 48.6714 1.43091 48.6676 1.42857C48.66 1.42365 48.6524 1.41884 48.6448 1.41404C48.6413 1.41181 48.6377 1.40959 48.6342 1.40748C48.6263 1.40255 48.6184 1.39763 48.6106 1.39271C48.6082 1.3913 48.6058 1.3899 48.6034 1.38849C48.5632 1.36388 48.5223 1.34021 48.4811 1.31724C48.4791 1.31607 48.477 1.31502 48.475 1.31384C48.4662 1.30892 48.4573 1.30412 48.4485 1.29943C48.4456 1.29779 48.4426 1.29627 48.4398 1.29462C48.4309 1.28994 48.4221 1.28525 48.4133 1.28068C48.4105 1.27916 48.4078 1.27775 48.405 1.27623C48.3963 1.27177 48.3878 1.26732 48.3791 1.26287C48.3757 1.26111 48.3722 1.25935 48.3687 1.25748C48.3604 1.25326 48.3519 1.24916 48.3436 1.24494C48.3403 1.2433 48.337 1.24166 48.3336 1.24001C48.3252 1.2358 48.3167 1.2317 48.3081 1.22748C48.3045 1.22572 48.3008 1.22396 48.2972 1.22232C48.2889 1.21822 48.2806 1.21435 48.2722 1.21037C48.269 1.20884 48.2657 1.20732 48.2623 1.2058C48.2533 1.20158 48.2442 1.19736 48.2351 1.19326L48.2346 1.19302V9.824C48.2346 11.0119 49.1977 11.975 50.3856 11.975Z" stroke="#FFC221" stroke-width="1.75781" stroke-miterlimit="10" stroke-linecap="round" stroke-linejoin="round"/>
<path d="M27.8635 45.8154L30.6098 48.5617L33.2784 45.8931L30.5321 43.1468C30.1453 43.6353 29.7262 44.1068 29.2748 44.5581C28.8235 45.0095 28.3521 45.4286 27.8635 45.8154Z" stroke="#FFC221" stroke-width="1.75781" stroke-miterlimit="10" stroke-linecap="round" stroke-linejoin="round"/>
<path d="M42.9391 53.8712L34.9487 45.8809C34.4908 45.423 33.7486 45.423 33.2907 45.8809L30.5976 48.574C30.1397 49.0318 30.1397 49.7742 30.5976 50.232L38.5879 58.2223C39.1888 58.8232 39.9761 59.1235 40.7635 59.1235C41.5509 59.1235 42.3383 58.8232 42.9391 58.2223C44.1406 57.0208 44.1406 55.0727 42.9391 53.8712Z" stroke="#FFC221" stroke-width="1.75781" stroke-miterlimit="10" stroke-linecap="round" stroke-linejoin="round"/>
<path d="M27.8636 45.8154C28.3522 45.4285 28.8236 45.0095 29.2749 44.5581C29.7263 44.1068 30.1454 43.6353 30.5322 43.1468C35.5584 36.7989 35.1393 27.5512 29.2749 21.6869C25.0054 17.4173 18.9426 16.0342 13.511 17.5372C10.908 18.2576 8.44986 19.6409 6.40377 21.6869C0.0880667 28.0026 0.0880667 38.2424 6.40377 44.5581C8.44986 46.6043 10.908 47.9876 13.511 48.7079C18.3684 50.0521 23.7305 49.0878 27.8636 45.8154Z" stroke="#FFC221" stroke-width="1.75781" stroke-miterlimit="10" stroke-linecap="round" stroke-linejoin="round"/>
<path d="M37.4591 6.58401H20.0233C19.4648 6.58401 19.012 7.03683 19.012 7.59534V10.9637C19.012 11.5222 19.4648 11.975 20.0233 11.975H37.4591C38.0178 11.975 38.4705 11.5222 38.4705 10.9637V7.59534C38.4705 7.03683 38.0178 6.58401 37.4591 6.58401Z" stroke="#FFC221" stroke-width="1.75781" stroke-miterlimit="10" stroke-linecap="round" stroke-linejoin="round"/>
<path d="M5.31812 31.1966C5.71187 28.623 6.89979 26.1473 8.88202 24.1652C13.829 19.2181 21.8498 19.2181 26.7968 24.1652C31.7438 29.1122 31.7438 37.133 26.7968 42.08C21.8498 47.027 13.829 47.027 8.88202 42.08C6.96577 40.1638 5.79179 37.7864 5.36007 35.3052" stroke="#FFC221" stroke-width="1.75781" stroke-miterlimit="10" stroke-linecap="round" stroke-linejoin="round"/>
<path d="M26.2201 42.6221C26.239 41.4111 25.5663 40.376 24.4551 39.8869C23.4323 39.4366 21.5014 39.1518 20.5509 39.0325L20.5451 39.0396C19.1192 40.8232 16.4094 40.8313 14.973 39.056C14.0234 39.1833 12.095 39.4845 11.076 39.9432C10.017 40.4204 9.4074 41.4629 9.38525 42.5568" stroke="#FFC221" stroke-width="1.75781" stroke-miterlimit="10" stroke-linecap="round" stroke-linejoin="round"/>
<path d="M22.9797 29.504V28.0673C22.9797 27.3629 22.4086 26.7919 21.7043 26.7919H21.6613C21.4236 26.7919 21.2307 26.5991 21.2307 26.3613C21.2307 25.6569 20.6597 25.0858 19.9553 25.0858H15.7128C14.0076 25.0858 12.6252 26.4683 12.6252 28.1735V30.4713" stroke="#FFC221" stroke-width="1.75781" stroke-miterlimit="10" stroke-linecap="round" stroke-linejoin="round"/>
<path d="M22.9797 29.504L20.9565 29.3143C20.0979 29.2338 19.2365 29.4337 18.5011 29.8842C17.8742 30.2682 17.1534 30.4713 16.4181 30.4713H12.6252V32.3034C12.6252 32.6743 12.9259 32.9749 13.2967 32.9749C13.4119 32.9749 13.5088 33.0637 13.516 33.1788C13.6553 35.4255 15.5206 37.2049 17.8025 37.2049C20.0865 37.2049 21.953 35.4223 22.084 33.1727C22.0906 33.0611 22.1842 32.9749 22.296 32.9749H22.3069C22.684 32.9749 22.9891 32.6691 22.9865 32.2928C22.9797 31.282 22.9797 29.504 22.9797 29.504Z" stroke="#FFC221" stroke-width="1.75781" stroke-miterlimit="10" stroke-linecap="round" stroke-linejoin="round"/>
<path d="M20.5452 39.0396L20.5508 39.0324C20.2322 38.9925 19.9927 38.7226 19.9913 38.4014L19.9836 36.6104" stroke="#FFC221" stroke-width="1.75781" stroke-miterlimit="10" stroke-linecap="round" stroke-linejoin="round"/>
<path d="M15.5193 36.5484L15.5272 38.4202C15.5286 38.7413 15.2913 39.0133 14.9729 39.0559" stroke="#FFC221" stroke-width="1.75781" stroke-miterlimit="10" stroke-linecap="round" stroke-linejoin="round"/>
</g>
</g>
<defs>
<clipPath id="clip0_1_397">
<rect width="60" height="60" fill="white" transform="translate(0.5)"/>
</clipPath>
</defs>
</svg>
