<svg width="60" height="60" viewBox="0 0 60 60" fill="none" xmlns="http://www.w3.org/2000/svg">
<g opacity="0.8" clip-path="url(#clip0_1_546)">
<path d="M49.3522 34.2956L53.3973 23.4481C54.427 21.0515 56.5091 21.4969 56.5091 21.4969C58.1206 21.7917 58.9877 23.1123 58.804 24.5915L55.0934 39.5079C54.135 43.3402 51.4634 47.0772 48.353 49.4923L41.9418 54.0793V56.7843C41.9418 57.4315 41.4171 57.9561 40.7699 57.9561H30.0182V51.1566C30.0182 51.1566 29.3175 43.4128 36.6754 38.9408L45.4713 33.295C45.9168 33.0081 46.4218 32.8679 46.9228 32.8679C47.6181 32.8679 48.3068 33.1376 48.8264 33.6571C49.8561 34.6882 49.8774 36.3538 48.8727 37.41L42.9492 42.0817" stroke="#FFC221" stroke-width="2.34375" stroke-miterlimit="10" stroke-linecap="round" stroke-linejoin="round"/>
<path d="M17.0512 42.0817L11.1277 37.41C10.1231 36.3538 10.1441 34.6882 11.174 33.6571C11.6935 33.1376 12.3822 32.8679 13.0776 32.8679C13.5786 32.8679 14.0835 33.0081 14.5291 33.295L23.325 38.9408C30.6828 43.4128 29.9822 51.1566 29.9822 51.1566V57.9561H19.2305C18.5833 57.9561 18.0586 57.4315 18.0586 56.7843V54.0793L11.6474 49.4923C8.53692 47.0772 5.8654 43.3402 4.90704 39.5079L1.19618 24.5915C1.01243 23.1122 1.87962 21.7916 3.49106 21.4969C3.49106 21.4969 5.57302 21.0515 6.60286 23.4481L10.6479 34.2956" stroke="#FFC221" stroke-width="2.34375" stroke-miterlimit="10" stroke-linecap="round" stroke-linejoin="round"/>
<path d="M24.6705 32.3757H23.187C22.5398 32.3757 22.0151 31.8511 22.0151 31.2039V24.9207C22.0151 22.3781 24.0763 20.317 26.6188 20.317H33.381C35.9237 20.317 37.9847 22.3782 37.9847 24.9207V31.2039C37.9847 31.8511 37.4601 32.3757 36.8129 32.3757H35.3485" stroke="#FFC221" stroke-width="2.34375" stroke-miterlimit="10" stroke-linecap="round" stroke-linejoin="round"/>
<path d="M30 20.317C33.0011 20.317 35.4339 17.8842 35.4339 14.8832C35.4339 11.8821 33.0011 9.4493 30 9.4493C26.999 9.4493 24.5662 11.8821 24.5662 14.8832C24.5662 17.8842 26.999 20.317 30 20.317Z" stroke="#FFC221" stroke-width="2.34375" stroke-miterlimit="10" stroke-linecap="round" stroke-linejoin="round"/>
<path d="M35.5942 12.9118H42.6214C45.164 12.9118 47.2251 14.973 47.2251 17.5155V23.7212C47.2251 24.411 46.6659 24.9701 45.9762 24.9701H37.9782" stroke="#FFC221" stroke-width="2.34375" stroke-miterlimit="10" stroke-linecap="round" stroke-linejoin="round"/>
<path d="M39.2405 12.9116C42.2415 12.9116 44.6744 10.4788 44.6744 7.47774C44.6744 4.47669 42.2415 2.04387 39.2405 2.04387C36.2395 2.04387 33.8066 4.47669 33.8066 7.47774C33.8066 10.4788 36.2395 12.9116 39.2405 12.9116Z" stroke="#FFC221" stroke-width="2.34375" stroke-miterlimit="10" stroke-linecap="round" stroke-linejoin="round"/>
<path d="M22.0218 24.9701H14.0238C13.334 24.9701 12.7749 24.411 12.7749 23.7212V17.5155C12.7749 14.9729 14.8361 12.9118 17.3786 12.9118H24.5661" stroke="#FFC221" stroke-width="2.34375" stroke-miterlimit="10" stroke-linecap="round" stroke-linejoin="round"/>
<path d="M20.7593 12.9116C23.7603 12.9116 26.1932 10.4788 26.1932 7.47774C26.1932 4.47669 23.7603 2.04387 20.7593 2.04387C17.7583 2.04387 15.3254 4.47669 15.3254 7.47774C15.3254 10.4788 17.7583 12.9116 20.7593 12.9116Z" stroke="#FFC221" stroke-width="2.34375" stroke-miterlimit="10" stroke-linecap="round" stroke-linejoin="round"/>
</g>
<defs>
<clipPath id="clip0_1_546">
<rect width="60" height="60" fill="white"/>
</clipPath>
</defs>
</svg>
